<svg width="154" height="72" viewBox="0 0 154 72" fill="none" xmlns="http://www.w3.org/2000/svg">
<path d="M43.0461 9.24637C42.4696 8.35241 41.6275 8.32674 40.6679 8.29748C40.5592 8.29417 40.4489 8.29081 40.3374 8.28613C40.2525 8.28217 40.1587 8.2837 40.0608 8.28529C39.6716 8.29162 39.2164 8.29903 38.987 7.96788C38.7211 7.58395 38.7464 6.842 38.7672 6.22949C38.7738 6.03594 38.7799 5.8552 38.7763 5.70289C38.7389 4.28004 38.661 2.76859 38.1186 2.26332C37.7096 1.88422 36.486 1.93674 35.3576 1.98517C34.9918 2.00087 34.636 2.01615 34.3211 2.01615H10.3022C9.81861 2.01615 9.31168 1.97627 8.81359 1.93709C7.84305 1.86074 6.90609 1.78703 6.24073 2.01615C5.27511 2.35028 5.20973 4.10606 5.14816 5.7594L5.14485 5.84835C5.09315 7.21325 4.75913 8.26645 3.65211 8.16036C2.36456 8.03896 1.08337 8.00069 0.501226 9.18075C-0.186298 10.577 -0.0445035 12.0385 0.209472 14.6563C0.24575 15.0303 0.284318 15.4278 0.323085 15.8521H43.4175C43.4421 15.542 43.4684 15.2358 43.4942 14.9346C43.696 12.5794 43.8718 10.5273 43.0461 9.24637Z" fill="white"/>
<path fill-rule="evenodd" clip-rule="evenodd" d="M3.67915 18.4485C4.3522 27.6731 5.0179 36.9083 5.68362 46.1436L5.68402 46.1493C6.04548 51.1637 6.40695 56.1782 6.76959 61.1911H8.14463C8.23833 61.9758 8.34554 62.9445 8.45857 63.9659C8.68803 66.0391 8.94152 68.3295 9.15463 69.737H9.30671C10.7073 69.218 20.3898 65.027 20.3941 48.3413C20.3923 48.2937 20.3939 48.2462 20.3988 48.1989H18.0067C17.8908 48.1978 17.7786 48.1587 17.6872 48.0875C17.5958 48.0163 17.5302 47.9171 17.5007 47.805C17.2676 47.2218 17.0796 46.6216 16.9385 46.0096C15.5312 46.8145 14.4137 48.0435 13.7452 49.5215C13.1106 48.0078 13.0275 46.3189 13.5105 44.7501C13.9935 43.1813 15.0118 41.8323 16.3875 40.9388C16.4052 36.0699 18.2054 31.3764 21.4473 27.7467L21.4979 27.7017C21.5921 27.6192 21.7128 27.5733 21.8379 27.5723C21.9102 27.5729 21.9817 27.5885 22.0477 27.6182C22.1145 27.6483 22.1743 27.692 22.2231 27.7467C25.5029 31.3813 27.2936 36.1199 27.238 41.0176C28.6394 41.8862 29.6784 43.2342 30.1623 44.8116C30.6461 46.3889 30.5419 48.0884 29.8691 49.5947C29.2041 48.1143 28.0857 46.8843 26.6758 46.0828C26.5896 46.6759 26.431 47.2562 26.2035 47.8106C26.1248 48.047 25.9674 48.1989 25.81 48.1989H23.2589C23.2629 48.2272 23.2658 48.2557 23.2674 48.2842L23.2684 48.2908V48.3045C23.2693 48.3291 23.2694 48.3537 23.2685 48.3783C23.3034 65.543 33.598 69.4391 34.4657 69.737H34.7625C34.8383 68.3851 35.085 66.5196 35.3255 64.7009C35.4912 63.4475 35.6539 62.2165 35.7558 61.1911H37.1468C37.592 54.8769 38.0499 48.5803 38.5078 42.2836L38.508 42.2802L38.5082 42.2783C39.0939 34.2241 39.6796 26.1697 40.2388 18.0777H3.76822C3.66324 18.0985 3.6704 18.2724 3.67915 18.4485ZM21.8379 27.5723L21.8352 27.5722H21.8408L21.8379 27.5723Z" fill="white"/>
<path d="M58.6509 10.1188C58.6509 7.84175 59.4255 6.077 60.9748 4.82459C62.5523 3.54373 64.9186 2.9033 68.0735 2.9033C70.1581 2.9033 71.9327 3.10254 73.3975 3.50103V9.39302C71.8201 8.90914 70.2567 8.66719 68.7073 8.66719C67.1862 8.66719 66.2003 8.85221 65.7496 9.22224C65.2988 9.5638 65.0735 10.0761 65.0735 10.7593V25.105C65.0735 26.4712 66.1298 27.1544 68.2425 27.1544C70.3834 27.1544 72.144 26.9409 73.5243 26.5139V32.2778C72.0032 32.7048 70.1581 32.9183 67.989 32.9183C64.834 32.9183 62.4819 32.2921 60.9326 31.0397C59.4114 29.7873 58.6509 28.0225 58.6509 25.7454V10.1188Z" fill="white"/>
<path d="M85.8671 14.1749C85.8671 13.0933 85.2756 12.5525 84.0924 12.5525C82.9093 12.5525 82.3178 13.0933 82.3178 14.1749V26.0443C82.3178 27.1259 82.9093 27.6667 84.0924 27.6667C85.2756 27.6667 85.8671 27.1259 85.8671 26.0443V14.1749ZM76.0642 13.9614C76.0642 11.7982 76.7261 10.1188 78.0501 8.92337C79.4022 7.69943 81.4164 7.08746 84.0924 7.08746C86.7685 7.08746 88.7686 7.69943 90.0925 8.92337C91.4446 10.1188 92.1207 11.7982 92.1207 13.9614V26.2578C92.1207 28.421 91.4446 30.1146 90.0925 31.3385C88.7686 32.534 86.7685 33.1317 84.0924 33.1317C81.4164 33.1317 79.4022 32.534 78.0501 31.3385C76.7261 30.1146 76.0642 28.421 76.0642 26.2578V13.9614Z" fill="white"/>
<path d="M96.2276 7.21555C96.2276 2.40518 98.7347 0 103.749 0C104.397 0 105.171 0.0711592 106.073 0.213477V5.16616C105.622 5.10923 105.2 5.08077 104.805 5.08077C103.369 5.08077 102.65 5.7639 102.65 7.13016V7.51442H106.073V12.5525H102.65V32.7048H96.2276V12.5525H93.8191V7.51442H96.2276V7.21555Z" fill="white"/>
<path d="M108.689 7.21555C108.689 2.40518 111.196 0 116.21 0C116.858 0 117.633 0.0711592 118.534 0.213477V5.16616C118.084 5.10923 117.661 5.08077 117.267 5.08077C115.83 5.08077 115.112 5.7639 115.112 7.13016V7.51442H118.534V12.5525H115.112V32.7048H108.689V12.5525H106.281V7.51442H108.689V7.21555Z" fill="white"/>
<path d="M120.01 25.5319V13.9614C120.01 11.7982 120.672 10.1188 121.996 8.92337C123.32 7.69943 125.32 7.08746 127.996 7.08746C133.151 7.08746 135.729 9.37879 135.729 13.9614V22.6286H126.137V25.0196C126.137 25.8735 126.362 26.4855 126.813 26.8555C127.292 27.1971 128.32 27.3678 129.897 27.3678C131.503 27.3678 133.25 27.0832 135.137 26.5139V32.1497C133.165 32.6906 131.052 32.961 128.799 32.961C122.94 32.961 120.01 30.4846 120.01 25.5319ZM126.137 17.7186H129.855V14.0468C129.855 12.9652 129.236 12.4244 127.996 12.4244C126.757 12.4244 126.137 12.9652 126.137 14.0468V17.7186Z" fill="white"/>
<path d="M138.249 25.5319V13.9614C138.249 11.7982 138.911 10.1188 140.235 8.92337C141.559 7.69943 143.559 7.08746 146.235 7.08746C151.39 7.08746 153.967 9.37879 153.967 13.9614V22.6286H144.375V25.0196C144.375 25.8735 144.601 26.4855 145.051 26.8555C145.53 27.1971 146.559 27.3678 148.136 27.3678C149.742 27.3678 151.488 27.0832 153.376 26.5139V32.1497C151.404 32.6906 149.291 32.961 147.037 32.961C141.178 32.961 138.249 30.4846 138.249 25.5319ZM144.375 17.7186H148.094V14.0468C148.094 12.9652 147.474 12.4244 146.235 12.4244C144.995 12.4244 144.375 12.9652 144.375 14.0468V17.7186Z" fill="white"/>
<path d="M68.8211 48.4255C68.8211 46.3236 67.7232 45.2726 65.5275 45.2726H62.0258V64.4352H65.5275C67.7232 64.4352 68.8211 63.3609 68.8211 61.2123V48.4255ZM59.5642 43.1006H65.6661C67.5152 43.1006 68.9136 43.5794 69.8612 44.5369C70.8088 45.4945 71.2827 46.779 71.2827 48.3905V61.2823C71.2827 62.9405 70.8204 64.2484 69.8959 65.2059C68.9713 66.1635 67.5845 66.6423 65.7355 66.6423H59.5642V43.1006Z" fill="white"/>
<path d="M75.3336 61.5626V51.8236C75.3336 50.1654 75.7959 48.8459 76.7204 47.865C77.6681 46.8607 79.0896 46.3586 80.9849 46.3586C82.8801 46.3586 84.2785 46.8607 85.1799 47.865C86.1045 48.8459 86.5667 50.1654 86.5667 51.8236V57.9192H77.7605V61.4575C77.7605 62.5085 78.0841 63.2908 78.7313 63.8047C79.3785 64.3185 80.3839 64.5754 81.7476 64.5754C83.1113 64.5754 84.5212 64.3652 85.9773 63.9448V66.2569C84.8217 66.6306 83.4464 66.8174 81.8516 66.8174C77.5063 66.8174 75.3336 65.0658 75.3336 61.5626ZM77.7605 55.8523H84.2092V51.8236C84.2092 49.6283 83.1344 48.5306 80.9849 48.5306C78.8353 48.5306 77.7605 49.6283 77.7605 51.8236V55.8523Z" fill="white"/>
<path d="M90.7808 41.4191H93.2423V66.6423H90.7808V41.4191Z" fill="white"/>
<path d="M99.2397 44.4669C98.2458 44.4669 97.7489 43.9297 97.7489 42.8554C97.7489 41.7811 98.2458 41.2439 99.2397 41.2439C100.257 41.2439 100.765 41.7811 100.765 42.8554C100.765 43.9297 100.257 44.4669 99.2397 44.4669ZM98.0262 46.849H100.488V66.6423H98.0262V46.849Z" fill="white"/>
<path d="M113.176 46.7089H115.673L111.304 66.6423H107.837L103.469 46.7089H106L107.907 55.8523L109.605 64.8907C110.299 61.0138 111.489 54.9532 113.176 46.7089Z" fill="white"/>
<path d="M118.299 61.5626V51.8236C118.299 50.1654 118.761 48.8459 119.685 47.865C120.633 46.8607 122.055 46.3586 123.95 46.3586C125.845 46.3586 127.244 46.8607 128.145 47.865C129.07 48.8459 129.532 50.1654 129.532 51.8236V57.9192H120.726V61.4575C120.726 62.5085 121.049 63.2908 121.696 63.8047C122.344 64.3185 123.349 64.5754 124.713 64.5754C126.076 64.5754 127.486 64.3652 128.942 63.9448V66.2569C127.787 66.6306 126.411 66.8174 124.817 66.8174C120.471 66.8174 118.299 65.0658 118.299 61.5626ZM120.726 55.8523H127.174V51.8236C127.174 49.6283 126.099 48.5306 123.95 48.5306C121.8 48.5306 120.726 49.6283 120.726 51.8236V55.8523Z" fill="white"/>
<path d="M140.125 46.6038H140.992V48.986H139.813C138.981 48.986 138.23 49.2079 137.56 49.6516C137.351 49.7918 136.901 50.107 136.207 50.5975V66.6423H133.746V46.7089H136.103V48.2153C136.173 48.1686 136.346 48.0401 136.623 47.8299C136.924 47.6198 137.097 47.503 137.143 47.4796C137.213 47.4329 137.363 47.3395 137.594 47.1994C137.848 47.0592 138.033 46.9775 138.149 46.9541C138.288 46.9074 138.472 46.849 138.704 46.779C139.05 46.6622 139.524 46.6038 140.125 46.6038Z" fill="white"/>
<path d="M151.539 46.7089H154L148.592 71.8621H146.234L147.309 66.6423H146.095L141.796 46.7089H144.293L146.373 56.623L147.898 64.8907C148.36 62.1348 148.869 59.3789 149.424 56.623L151.539 46.7089Z" fill="white"/>
</svg>
