<svg width="151" height="100" viewBox="0 0 151 100" fill="none" xmlns="http://www.w3.org/2000/svg">
<path d="M25.2406 99.5621C35.5622 99.5621 43.9295 91.1604 43.9295 80.7964C43.9295 70.4323 35.5622 62.0306 25.2406 62.0306C14.9191 62.0306 6.55176 70.4323 6.55176 80.7964C6.55176 91.1604 14.9191 99.5621 25.2406 99.5621Z" fill="#1E1D22"/>
<path d="M25.2405 71.0573C30.5972 71.0573 34.9397 75.4177 34.9397 80.7965C34.9397 86.1753 30.5972 90.5358 25.2405 90.5358C19.8838 90.5357 15.5413 86.1753 15.5413 80.7965C15.5413 75.4177 19.8837 71.0573 25.2405 71.0573ZM24.8713 80.3903C23.0426 80.3906 23.0396 83.2357 24.8713 83.236C26.7004 83.236 26.7035 80.3903 24.8713 80.3903Z" fill="#848384"/>
<path d="M126.642 99.5621C136.963 99.5621 145.331 91.1604 145.331 80.7964C145.331 70.4323 136.963 62.0306 126.642 62.0306C116.32 62.0306 107.953 70.4323 107.953 80.7964C107.953 91.1604 116.32 99.5621 126.642 99.5621Z" fill="#1E1D22"/>
<path d="M126.642 71.0573C131.998 71.0573 136.341 75.4177 136.341 80.7965C136.341 86.1753 131.998 90.5358 126.642 90.5358C121.285 90.5357 116.942 86.1753 116.942 80.7965C116.942 75.4177 121.285 71.0573 126.642 71.0573ZM126.272 78.9401C122.581 78.9404 122.575 84.6859 126.272 84.6862C129.964 84.6862 129.97 78.9401 126.272 78.9401Z" fill="#848384"/>
<path d="M98.999 6.03926L111.643 0L112.291 13.8382L100.134 9.89801L98.999 6.03926Z" fill="#8E6CD8"/>
<path d="M112.225 13.841C113.41 13.7853 114.226 10.6424 114.047 6.82106C113.867 2.99975 112.762 -0.0528751 111.577 0.00282549C110.392 0.0585261 109.576 3.20146 109.755 7.02277C109.934 10.8441 111.04 13.8967 112.225 13.841Z" fill="#FFBA55"/>
<path d="M111.577 0.00282549C111.429 0.0449344 111.292 0.119131 111.176 0.22003C111.06 0.320929 110.967 0.446134 110.905 0.586796C110.758 0.8559 110.645 1.14197 110.568 1.43861C110.407 2.03742 110.296 2.64848 110.235 3.2656C110.008 5.75409 110.126 8.26203 110.586 10.7182C110.704 11.3268 110.872 11.9247 111.088 12.5058C111.192 12.7939 111.331 13.068 111.502 13.3222C111.577 13.4564 111.681 13.5724 111.806 13.6621C111.931 13.7517 112.074 13.8128 112.225 13.841C112.058 13.8521 111.891 13.8242 111.737 13.7594C111.582 13.6947 111.445 13.595 111.336 13.4681C111.101 13.2333 110.899 12.9675 110.736 12.6781C110.418 12.1061 110.165 11.4999 109.983 10.8711C109.27 8.36639 109.147 5.73054 109.623 3.17021C109.746 2.52711 109.94 1.89995 110.204 1.30067C110.339 0.99722 110.515 0.713664 110.727 0.457836C110.823 0.321275 110.951 0.209099 111.098 0.13015C111.246 0.0512016 111.409 0.0075678 111.577 0.00282549Z" fill="#E6952A"/>
<path d="M150.535 78.6586C150.535 78.6586 133.502 70.1071 103.222 81.5091H49.134C49.134 81.5091 31.1549 92.911 0.874136 84.3596C0.874136 84.3596 -2.91095 77.7084 6.55177 63.4559C6.55177 63.4559 12.2294 47.3032 16.0145 44.4527L68.1921 44.48C68.1921 44.48 66.9744 70.8587 85.8999 72.759C104.825 74.6594 102.933 56.6062 102.933 56.6062L100.428 16.6522C100.384 14.1185 100.212 11.5886 99.911 9.07242C99.5666 6.13838 98.5726 6.54636 99.7554 7.14021C101.648 8.09038 120.255 28.2998 124.04 56.8048C124.04 56.8048 145.804 53.9543 150.535 78.6586Z" fill="#8E6CD8"/>
<path d="M13.9428 45.2047H65.5789C68.7143 45.2047 71.2565 42.3155 71.2565 38.752C71.2565 35.1885 68.7143 32.2993 65.5789 32.2993H13.9428C10.8073 32.2993 8.26514 35.1885 8.26514 38.752C8.26514 42.3155 10.8073 45.2047 13.9428 45.2047Z" fill="#6F56A5"/>
<path d="M49.134 81.5089C50.8134 78.9363 52.1255 76.1413 53.0324 73.205C53.916 70.3099 54.2928 67.2188 53.605 64.3548C52.8791 61.493 51.1277 58.9983 48.6842 57.3456C48.5343 57.2387 48.3945 57.1192 48.2369 57.0221L47.7641 56.7304C47.4467 56.5394 47.1434 56.3275 46.8152 56.1526C46.1444 55.8243 45.5107 55.4421 44.7999 55.1724L43.7579 54.733C43.4215 54.5932 43.0782 54.4707 42.7294 54.3658C42.0236 54.1457 41.297 53.9644 40.5651 53.8097C37.6151 53.1914 34.5936 52.9867 31.5874 53.2014C30.0794 53.301 28.5788 53.4908 27.0935 53.7696C25.6062 54.0504 24.14 54.4373 22.6826 54.8624C16.8517 56.7755 11.3945 59.6827 6.55176 63.4559L8.27707 61.9064L10.0831 60.4469L11.9529 59.0631C12.5977 58.6323 13.2355 58.1871 13.8896 57.7665C16.5352 56.1047 19.3526 54.7344 22.2925 53.6794C25.2592 52.6366 28.3444 51.9696 31.4764 51.6938C34.6273 51.4304 37.7997 51.6175 40.8979 52.2494C41.6727 52.4196 42.4419 52.6177 43.2059 52.8627C43.5824 52.9841 43.9809 53.1201 44.351 53.2822L45.4361 53.7502C46.167 54.0354 46.8597 54.453 47.5688 54.8106C47.919 55.0013 48.2494 55.2331 48.5902 55.4428C48.9352 55.6488 49.2651 55.8792 49.5774 56.1322C52.2583 58.032 54.128 60.8717 54.8153 64.0877C55.1214 65.6671 55.1639 67.2865 54.941 68.8798C54.7215 70.4439 54.3281 71.9785 53.7682 73.4551C53.2062 74.9113 52.5325 76.3218 51.753 77.6738C50.9887 79.0233 50.1127 80.3062 49.134 81.5089Z" fill="#6F56A5"/>
<path d="M42.8887 60.6625C42.0291 61.6761 41.0618 62.593 40.0038 63.3968C38.9529 64.214 37.8471 64.958 36.6942 65.6234C36.1302 65.9812 35.5321 66.2714 34.9415 66.5795C34.3548 66.8972 33.7442 67.1602 33.1392 67.4385C32.8373 67.5792 32.5309 67.7095 32.2255 67.8421L31.293 68.1966C30.6682 68.4236 30.0529 68.6819 29.4194 68.8831C26.8932 69.7045 24.3003 70.3038 21.6701 70.6742C20.364 70.8902 19.035 70.9442 17.7225 71.0618C16.4007 71.1029 15.0787 71.1046 13.7625 71.0572C15.0535 70.7509 16.3447 70.5411 17.6254 70.2838L19.5382 69.8691C20.1745 69.7311 20.8151 69.6244 21.4422 69.4494C22.0719 69.2883 22.7015 69.1331 23.3336 68.9918C23.9686 68.8623 24.5829 68.6499 25.2074 68.4822C25.8269 68.2962 26.4631 68.1699 27.0741 67.9585L28.9192 67.3681C29.5385 67.1847 30.1379 66.9453 30.7486 66.7367L31.6599 66.4102C31.958 66.2877 32.2552 66.163 32.5568 66.0485C33.769 65.6015 34.9385 65.0559 36.117 64.5251C36.6986 64.2448 37.2875 63.9734 37.8576 63.6685L38.7235 63.2251L39.5713 62.7485C40.7167 62.1185 41.8244 61.422 42.8887 60.6625Z" fill="#6F56A5"/>
<path d="M45.102 66.9299C44.2425 67.9436 43.2751 68.8605 42.2172 69.6643C41.1662 70.4815 40.0604 71.2254 38.9076 71.8908C38.3436 72.2487 37.7454 72.5389 37.1549 72.8469C36.5682 73.1647 35.9575 73.4277 35.3526 73.706C35.0506 73.8466 34.7443 73.977 34.4388 74.1095L33.5064 74.4641C32.8816 74.6911 32.2663 74.9493 31.6328 75.1505C29.1066 75.9719 26.5136 76.5713 23.8834 76.9416C22.5773 77.1576 21.2484 77.2117 19.9359 77.3291C18.614 77.3704 17.2921 77.372 15.9758 77.3247C17.2669 77.0183 18.558 76.8086 19.8388 76.5513L21.7516 76.1365C22.3879 75.9986 23.0284 75.8919 23.6556 75.7169C24.2852 75.5558 24.9149 75.4006 25.547 75.2592C26.182 75.1297 26.7963 74.9173 27.4208 74.7497C28.0402 74.5637 28.6765 74.4372 29.2875 74.226L31.1326 73.6355C31.7518 73.4521 32.3513 73.2127 32.9621 73.0041L33.8733 72.6777C34.1714 72.5552 34.4686 72.4304 34.7703 72.316C35.9823 71.869 37.152 71.3234 38.3303 70.7926C38.912 70.5122 39.5009 70.2408 40.071 69.9359L40.9369 69.4926L41.7847 69.016C42.9301 68.386 44.0378 67.6894 45.102 66.9299Z" fill="#6F56A5"/>
<path d="M106.458 14.6457C105.868 14.1269 105.325 13.5817 104.792 13.0316L103.212 11.3823C102.693 10.8306 102.165 10.2919 101.62 9.78105C101.349 9.52597 101.064 9.28779 100.764 9.06786C100.471 8.83384 100.124 8.67714 99.7554 8.61207C100.154 8.51512 100.573 8.55349 100.947 8.72114C101.319 8.87121 101.674 9.06247 102.004 9.29136C102.651 9.74057 103.249 10.2566 103.788 10.831C104.323 11.3968 104.817 11.9994 105.268 12.6344C105.728 13.2653 106.127 13.9389 106.458 14.6457Z" fill="#6F56A5"/>
<path d="M124.04 56.8048C121.247 57.5309 118.582 58.6808 116.137 60.2147C114.937 60.9686 113.8 61.8192 112.739 62.7583C111.672 63.6829 110.696 64.707 109.823 65.8166C108.93 66.9115 108.134 68.0832 107.445 69.318C107.255 69.6172 107.1 69.9365 106.935 70.2508C106.776 70.5683 106.595 70.8752 106.454 71.2021C106.171 71.8547 105.854 72.4945 105.604 73.1651C104.567 75.871 103.77 78.663 103.221 81.509C103.151 78.5435 103.559 75.5859 104.431 72.7509C105.297 69.8644 106.706 67.1705 108.583 64.8146C111.437 61.2856 115.309 58.7258 119.671 57.4857C121.092 57.0723 122.56 56.8435 124.04 56.8048Z" fill="#6F56A5"/>
<path d="M34.972 30.7584H16.2323L12.0059 26.3082C11.9429 26.239 11.8656 26.1842 11.7795 26.1476C11.6934 26.111 11.6004 26.0935 11.5069 26.0962C11.4133 26.0989 11.3215 26.1219 11.2377 26.1634C11.1538 26.2049 11.0799 26.2641 11.021 26.3369C10.8929 26.4916 10.825 26.6874 10.8298 26.8883C10.8345 27.0892 10.9116 27.2816 11.0468 27.4301L14.2076 30.7584H9.1655V27.2463C9.17553 27.1486 9.16498 27.05 9.13453 26.9566C9.10408 26.8633 9.05442 26.7774 8.98874 26.7045C8.92306 26.6317 8.84284 26.5734 8.75326 26.5335C8.66368 26.4936 8.56674 26.473 8.4687 26.473C8.37067 26.473 8.27372 26.4936 8.18414 26.5335C8.09456 26.5734 8.01433 26.6317 7.94866 26.7045C7.88298 26.7774 7.83331 26.8633 7.80286 26.9566C7.77242 27.05 7.76187 27.1486 7.77191 27.2463V30.7585H4.32962C4.13852 30.7781 3.96149 30.8681 3.83278 31.0109C3.70406 31.1537 3.63281 31.3392 3.63281 31.5316C3.63281 31.724 3.70406 31.9095 3.83278 32.0523C3.96149 32.1951 4.13852 32.285 4.32962 32.3047H7.77191V35.8169C7.76187 35.9145 7.77242 36.0132 7.80286 36.1065C7.83331 36.1998 7.88298 36.2857 7.94866 36.3586C8.01433 36.4315 8.09456 36.4898 8.18414 36.5296C8.27372 36.5695 8.37067 36.5901 8.4687 36.5901C8.56674 36.5901 8.66368 36.5695 8.75326 36.5296C8.84284 36.4898 8.92306 36.4315 8.98874 36.3586C9.05442 36.2857 9.10408 36.1998 9.13453 36.1065C9.16498 36.0132 9.17553 35.9145 9.1655 35.8169V32.3047H15.676L19.1865 36.0011C19.2495 36.0703 19.3268 36.125 19.4129 36.1616C19.499 36.1982 19.592 36.2157 19.6855 36.213C19.779 36.2102 19.8709 36.1873 19.9547 36.1458C20.0386 36.1043 20.1125 36.0451 20.1714 35.9724C20.2995 35.8177 20.3674 35.6218 20.3626 35.4209C20.3579 35.2201 20.2808 35.0277 20.1456 34.8792L17.7007 32.3047H34.972C35.1631 32.285 35.3401 32.1951 35.4689 32.0523C35.5976 31.9095 35.6688 31.7239 35.6688 31.5315C35.6688 31.3392 35.5976 31.1536 35.4689 31.0108C35.3401 30.868 35.1631 30.7781 34.972 30.7584Z" fill="#464646"/>
<path d="M8.49656 32.0399C8.63917 32.035 8.77428 31.9748 8.87343 31.872C8.97257 31.7693 9.02798 31.632 9.02798 31.4891C9.02798 31.3462 8.97257 31.2089 8.87343 31.1061C8.77428 31.0033 8.63917 30.9431 8.49656 30.9382C8.35396 30.9431 8.21883 31.0033 8.11969 31.1061C8.02055 31.2089 7.96513 31.3462 7.96513 31.4891C7.96513 31.632 8.02055 31.7693 8.11969 31.872C8.21883 31.9748 8.35396 32.035 8.49656 32.0399Z" fill="#616161"/>
<path d="M8.49656 36.1799C8.63917 36.175 8.77428 36.1148 8.87343 36.012C8.97257 35.9092 9.02798 35.7719 9.02798 35.629C9.02798 35.4862 8.97257 35.3488 8.87343 35.2461C8.77428 35.1433 8.63917 35.0831 8.49656 35.0782C8.35396 35.0831 8.21883 35.1433 8.11969 35.2461C8.02055 35.3488 7.96513 35.4862 7.96513 35.629C7.96513 35.7719 8.02055 35.9092 8.11969 36.012C8.21883 36.1148 8.35396 36.175 8.49656 36.1799Z" fill="#616161"/>
<path d="M11.6321 27.5346C11.7747 27.5297 11.9099 27.4695 12.009 27.3668C12.1081 27.264 12.1635 27.1267 12.1635 26.9838C12.1635 26.8409 12.1081 26.7036 12.009 26.6008C11.9099 26.498 11.7747 26.4379 11.6321 26.4329C11.4895 26.4379 11.3544 26.498 11.2552 26.6008C11.1561 26.7036 11.1007 26.8409 11.1007 26.9838C11.1007 27.1267 11.1561 27.264 11.2552 27.3668C11.3544 27.4695 11.4895 27.5297 11.6321 27.5346Z" fill="#616161"/>
<path d="M8.49657 27.9115C8.63916 27.9066 8.77427 27.8464 8.87339 27.7436C8.97252 27.6409 9.02793 27.5036 9.02793 27.3607C9.02793 27.2178 8.97252 27.0805 8.87339 26.9777C8.77427 26.875 8.63916 26.8148 8.49657 26.8098C8.35398 26.8148 8.21887 26.875 8.11974 26.9777C8.02062 27.0805 7.96522 27.2178 7.96522 27.3607C7.96522 27.5036 8.02062 27.6409 8.11974 27.7436C8.21887 27.8464 8.35398 27.9066 8.49657 27.9115Z" fill="#616161"/>
<path d="M15.6457 32.0399C15.7883 32.035 15.9234 31.9748 16.0225 31.872C16.1217 31.7693 16.1771 31.632 16.1771 31.4891C16.1771 31.3462 16.1217 31.2089 16.0225 31.1061C15.9234 31.0033 15.7883 30.9431 15.6457 30.9382C15.5031 30.9431 15.3679 31.0033 15.2688 31.1061C15.1697 31.2089 15.1142 31.3462 15.1142 31.4891C15.1142 31.632 15.1697 31.7693 15.2688 31.872C15.3679 31.9748 15.5031 32.035 15.6457 32.0399Z" fill="#616161"/>
<path d="M19.5679 31.8937C19.7105 31.8888 19.8457 31.8286 19.9448 31.7259C20.0439 31.6231 20.0994 31.4858 20.0994 31.3429C20.0994 31.2 20.0439 31.0627 19.9448 30.9599C19.8457 30.8572 19.7105 30.797 19.5679 30.792C19.4253 30.797 19.2902 30.8572 19.1911 30.9599C19.0919 31.0627 19.0365 31.2 19.0365 31.3429C19.0365 31.4858 19.0919 31.6231 19.1911 31.7259C19.2902 31.8286 19.4253 31.8888 19.5679 31.8937Z" fill="#616161"/>
<path d="M19.5679 35.9248C19.7105 35.9199 19.8457 35.8597 19.9448 35.7569C20.0439 35.6542 20.0994 35.5168 20.0994 35.3739C20.0994 35.2311 20.0439 35.0937 19.9448 34.991C19.8457 34.8882 19.7105 34.828 19.5679 34.8231C19.4253 34.828 19.2902 34.8882 19.1911 34.991C19.0919 35.0937 19.0365 35.2311 19.0365 35.3739C19.0365 35.5168 19.0919 35.6542 19.1911 35.7569C19.2902 35.8597 19.4253 35.9199 19.5679 35.9248Z" fill="#616161"/>
<path d="M4.69206 32.0399C4.83466 32.035 4.96979 31.9748 5.06893 31.872C5.16807 31.7693 5.22348 31.632 5.22348 31.4891C5.22348 31.3462 5.16807 31.2089 5.06893 31.1061C4.96979 31.0033 4.83466 30.9431 4.69206 30.9382C4.54945 30.9431 4.41433 31.0033 4.31519 31.1061C4.21605 31.2089 4.16064 31.3462 4.16064 31.4891C4.16064 31.632 4.21605 31.7693 4.31519 31.872C4.41433 31.9748 4.54945 32.035 4.69206 32.0399Z" fill="#616161"/>
<path d="M34.3755 32.0399C34.5181 32.035 34.6532 31.9748 34.7523 31.872C34.8515 31.7693 34.9069 31.632 34.9069 31.4891C34.9069 31.3462 34.8515 31.2089 34.7523 31.1061C34.6532 31.0033 34.5181 30.9431 34.3755 30.9382C34.2329 30.9431 34.0977 31.0033 33.9986 31.1061C33.8995 31.2089 33.844 31.3462 33.844 31.4891C33.844 31.632 33.8995 31.7693 33.9986 31.872C34.0977 31.9748 34.2329 32.035 34.3755 32.0399Z" fill="#616161"/>
<path d="M33.7746 30.7447H5.36125C4.95127 30.7447 4.55808 30.5816 4.26819 30.2913C3.97829 30.001 3.81543 29.6072 3.81543 29.1967V8.35706H35.3204V29.1967C35.3204 29.6072 35.1575 30.001 34.8676 30.2913C34.5778 30.5816 34.1846 30.7447 33.7746 30.7447Z" fill="#584432"/>
<path d="M23.1804 14.8051C23.0786 14.6493 22.93 14.6448 22.7607 14.6397C22.7415 14.6391 22.7221 14.6385 22.7024 14.6377C22.6874 14.637 22.6708 14.6373 22.6536 14.6376C22.5849 14.6387 22.5046 14.64 22.4641 14.5823C22.4172 14.5153 22.4216 14.386 22.4253 14.2793C22.4265 14.2455 22.4275 14.214 22.4269 14.1875C22.4203 13.9395 22.4065 13.6761 22.3108 13.588C22.2387 13.5219 22.0227 13.5311 21.8236 13.5395C21.7591 13.5423 21.6963 13.5449 21.6407 13.5449H17.4022C17.3169 13.5449 17.2274 13.538 17.1396 13.5311C16.9683 13.5178 16.8029 13.505 16.6855 13.5449C16.5151 13.6032 16.5036 13.9092 16.4927 14.1973L16.4921 14.2128C16.483 14.4507 16.4241 14.6343 16.2287 14.6158C16.0015 14.5946 15.7754 14.588 15.6727 14.7936C15.5514 15.037 15.5764 15.2917 15.6212 15.748C15.6276 15.8132 15.6344 15.8825 15.6413 15.9564H23.2459C23.2502 15.9024 23.2549 15.849 23.2594 15.7965C23.295 15.386 23.3261 15.0283 23.1804 14.8051Z" fill="#785A3F"/>
<path fill-rule="evenodd" clip-rule="evenodd" d="M16.2335 16.4089C16.3523 18.0167 16.4697 19.6263 16.5872 21.236C16.651 22.1099 16.7149 22.9849 16.7789 23.8586H17.0215C17.038 23.9954 17.057 24.1642 17.0769 24.3422C17.1174 24.7036 17.1621 25.1028 17.1997 25.3481H17.2266C17.4737 25.2576 19.1823 24.5272 19.1831 21.619C19.1828 21.6107 19.1831 21.6024 19.1839 21.5942H18.7618C18.7414 21.594 18.7216 21.5872 18.7054 21.5748C18.6893 21.5624 18.6777 21.5451 18.6725 21.5255C18.6314 21.4239 18.5982 21.3193 18.5733 21.2126C18.325 21.3529 18.1278 21.5671 18.0098 21.8247C17.8978 21.5609 17.8832 21.2665 17.9684 20.9931C18.0536 20.7197 18.2333 20.4845 18.4761 20.3288C18.4792 19.4802 18.7969 18.6621 19.3689 18.0295L19.3779 18.0217C19.3945 18.0073 19.4158 17.9993 19.4379 17.9991C19.4506 17.9992 19.4632 18.002 19.4749 18.0071C19.4867 18.0124 19.4972 18.02 19.5059 18.0295C20.0846 18.663 20.4006 19.4889 20.3908 20.3425C20.6381 20.4939 20.8214 20.7289 20.9068 21.0038C20.9922 21.2787 20.9738 21.5749 20.8551 21.8374C20.7378 21.5794 20.5404 21.365 20.2916 21.2254C20.2764 21.3287 20.2484 21.4299 20.2083 21.5265C20.1944 21.5677 20.1666 21.5942 20.1388 21.5942H19.6886C19.6893 21.5991 19.6898 21.6041 19.6901 21.609L19.6903 21.6102V21.6126C19.6905 21.6169 19.6905 21.6212 19.6903 21.6255C19.6965 24.6171 21.5131 25.2962 21.6662 25.3481H21.7186C21.732 25.1125 21.7755 24.7873 21.8179 24.4703C21.8472 24.2519 21.8759 24.0373 21.8939 23.8586H22.1393C22.2179 22.7581 22.2987 21.6606 22.3795 20.5632C22.4829 19.1594 22.5863 17.7547 22.685 16.3443H16.2492C16.2307 16.3479 16.232 16.3782 16.2335 16.4089Z" fill="#785A3F"/>
<path d="M39.1346 3.33272V6.16608C39.1612 6.71863 38.9685 7.25929 38.5983 7.66997C38.2282 8.08064 37.7108 8.32795 37.1592 8.35789H1.97455C1.42329 8.32778 0.906368 8.08029 0.536828 7.66955C0.167287 7.25881 -0.0247982 6.71826 0.00257012 6.16608V3.33272C-0.0240449 2.78112 0.168409 2.24138 0.5379 1.83142C0.907392 1.42147 1.42389 1.17461 1.97455 1.14478H37.1592C37.7103 1.17444 38.2272 1.42112 38.5973 1.83102C38.9673 2.24091 39.1605 2.78074 39.1346 3.33272Z" fill="#785A3F"/>
</svg>
