<svg width="64" height="121" viewBox="0 0 64 121" fill="none" xmlns="http://www.w3.org/2000/svg">
<path d="M13.9666 1.91059C15.4179 1.67659 16.904 1.79136 18.3023 2.24543C18.9579 2.47191 21.3554 3.30013 22.5398 5.55647C22.9897 6.41337 23.0985 7.4479 23.3163 9.51696C23.4524 10.8093 23.9578 11.7315 23.9704 13.309C23.9555 14.5874 23.7569 15.857 23.3808 17.0788C22.8178 18.9908 23.2 20.0711 22.9142 20.43C21.7623 21.8767 18.2184 20.7796 18.1813 22.6548C18.1584 23.8127 20.152 28.7935 20.1238 30.15C20.0579 33.311 14.7598 30.0488 11.5668 25.362C11.4219 25.1493 9.25578 23.9043 9.46385 21.8549C9.57504 20.7601 10.4586 15.62 10.3639 14.9586C10.0215 12.568 8.81468 12.2864 7.84053 9.40136C7.57672 8.67722 7.50308 7.89734 7.62665 7.1365C7.75023 6.37567 8.06689 5.65937 8.54627 5.05628C9.92879 3.40365 11.8474 2.2902 13.9666 1.91059Z" fill="#D19E8A"/>
<path d="M15.854 20.2327C17.448 21.3344 20.5026 21.2603 20.5026 21.2603L20.5124 21.3315C19.3261 21.4863 18.2021 21.6032 18.1813 22.6548C18.2374 23.2432 18.3622 23.823 18.5533 24.3822C16.4674 23.2054 15.854 20.2327 15.854 20.2327Z" fill="#B5806D"/>
<path fill-rule="evenodd" clip-rule="evenodd" d="M11.5791 10.9237C11.7609 10.8467 11.9637 10.8347 12.1533 10.8895C12.0023 10.9757 11.8592 11.0759 11.7256 11.1873C11.6654 11.2373 11.6053 11.2876 11.5479 11.3407C11.658 11.4317 11.7542 11.5391 11.8291 11.6619C11.9402 11.8383 12.015 12.0354 12.0498 12.241C12.0906 12.4443 12.0874 12.6542 12.041 12.8563C11.9946 13.0583 11.9056 13.2479 11.7803 13.4129C11.7648 13.0423 11.728 12.6727 11.6689 12.3065C11.6117 12.0116 11.5402 11.7197 11.4561 11.4315C11.4273 11.4596 11.3981 11.4875 11.3701 11.5164C11.2509 11.6265 11.1474 11.7557 11.0264 11.8768C10.9066 12.012 10.7786 12.1398 10.6436 12.2596C10.65 12.0698 10.6948 11.8831 10.7744 11.7108C10.854 11.5376 10.9623 11.379 11.0957 11.243C11.2329 11.1043 11.3978 10.9955 11.5791 10.9237Z" fill="#B5806D"/>
<path d="M14.7685 15.6402C14.7685 15.6402 13.935 12.1717 14.0737 11.1755C14.2671 9.78725 14.3638 9.09319 14.1931 8.53039C13.92 7.62954 14.3585 7.50818 14.9155 6.53277C15.4382 5.61732 17.0881 6.34064 17.497 6.1853C18.6446 5.74927 18.5978 5.26422 19.3757 5.2091C20.1735 5.15257 20.7575 4.93639 21.2776 5.44771C21.8079 5.96962 22.7849 7.36064 23.0208 7.11585C23.5168 6.44251 23.8181 5.64536 23.8915 4.81187C23.8904 3.99095 23.6894 3.18268 23.306 2.45707C23.1135 2.03763 22.3965 0.476737 20.928 0.0709432C20.0821 -0.162818 19.9237 0.245515 18.0994 0.369302C16.2072 0.497753 16.1448 0.0743505 15.1558 0.365014C14.061 0.686818 14.1072 1.21418 12.2405 2.25615C11.6215 2.59062 10.9848 2.89117 10.3333 3.15648C7.98725 4.17506 7.67796 4.01805 7.14092 4.54669C5.98312 5.68642 6.19031 7.62727 6.24035 8.09608C6.38136 9.41641 6.89997 9.8091 8.03862 11.9163C9.8416 15.2534 9.49757 16.6651 10.1519 17.1296C10.4729 17.3574 12.1458 16.1449 12.133 15.5545C12.1163 14.7806 11.5573 14.5412 10.892 13.4281C10.4273 12.6502 9.75981 11.5334 10.1298 10.5126C10.3537 9.89562 10.6108 10.0617 11.2477 10.1153C12.1121 10.1881 12.5473 11.3893 12.9011 12.2706C13.1565 12.9084 13.2701 13.5942 13.2341 14.2804C13.1557 15.8113 15.0713 16.2468 14.7685 15.6402Z" fill="#2E2C33"/>
<path d="M22.8413 12.1549C23.1093 12.1526 23.3243 11.8802 23.3214 11.5465C23.3186 11.2127 23.099 10.944 22.831 10.9463C22.563 10.9486 22.348 11.221 22.3509 11.5548C22.3537 11.8885 22.5733 12.1572 22.8413 12.1549Z" fill="#0A0709"/>
<path d="M18.4663 12.1929C18.7343 12.1906 18.9493 11.9182 18.9464 11.5844C18.9436 11.2507 18.724 10.982 18.456 10.9843C18.188 10.9865 17.973 11.259 17.9759 11.5927C17.9787 11.9265 18.1983 12.1952 18.4663 12.1929Z" fill="#0A0709"/>
<path d="M20.5196 10.489C20.5787 10.4885 20.6364 10.4707 20.6856 10.4379C21.1132 10.1367 21.6218 9.97203 22.1446 9.96547C22.6673 9.95891 23.1799 10.1108 23.6149 10.4011C23.6802 10.4492 23.7619 10.4693 23.8421 10.4571C23.9222 10.445 23.9943 10.4015 24.0424 10.3362C24.0906 10.2709 24.111 10.1892 24.0991 10.1089C24.0872 10.0286 24.044 9.95633 23.979 9.90786C23.4406 9.54877 22.8074 9.35871 22.1604 9.36198C21.5135 9.36525 20.8822 9.56172 20.3474 9.92624C20.2923 9.9628 20.2505 10.0162 20.2282 10.0785C20.2059 10.1409 20.2043 10.2087 20.2236 10.272C20.243 10.3353 20.2823 10.3906 20.3356 10.4297C20.389 10.4689 20.4535 10.4896 20.5196 10.489Z" fill="#494752"/>
<path d="M15.9845 10.5278C16.0436 10.5273 16.1012 10.5095 16.1504 10.4767C16.5793 10.1787 17.0874 10.0159 17.6093 10.0092C18.1313 10.0025 18.6433 10.1522 19.0797 10.439C19.112 10.4629 19.1487 10.4803 19.1877 10.4901C19.2267 10.4999 19.2672 10.5019 19.3069 10.496C19.3467 10.4901 19.3849 10.4764 19.4194 10.4557C19.4539 10.435 19.4839 10.4077 19.5078 10.3754C19.5318 10.3431 19.5491 10.3063 19.5589 10.2673C19.5687 10.2282 19.5707 10.1877 19.5648 10.1478C19.5589 10.108 19.5452 10.0698 19.5245 10.0353C19.5039 10.0007 19.4766 9.97063 19.4443 9.94665C18.9058 9.58758 18.2725 9.39752 17.6255 9.4008C16.9785 9.40407 16.3472 9.60052 15.8123 9.96503C15.7572 10.0016 15.7153 10.055 15.693 10.1173C15.6707 10.1797 15.6691 10.2475 15.6885 10.3108C15.7079 10.3741 15.7471 10.4294 15.8005 10.4685C15.8538 10.5076 15.9184 10.5284 15.9845 10.5278Z" fill="#494752"/>
<path d="M20.1035 10.6173C19.9445 11.128 19.969 11.6783 20.1726 12.1729C20.3493 12.6701 20.6035 13.1362 20.9258 13.5538L21.1817 13.8405C21.2129 13.8688 21.2381 13.9031 21.2559 13.9413C21.2737 13.9795 21.2838 14.0209 21.2854 14.0631C21.2666 14.27 21.167 14.4611 21.0083 14.5949C20.618 14.8884 20.1319 15.0244 19.6462 14.976C19.8986 15.077 20.1714 15.1162 20.442 15.0902C20.7125 15.0643 20.9729 14.9741 21.2016 14.827C21.3277 14.7404 21.4334 14.6272 21.5111 14.4954C21.5889 14.3636 21.6368 14.2163 21.6516 14.0639C21.6528 13.8909 21.5881 13.7239 21.4708 13.5968L21.2237 13.3073C20.9216 12.9162 20.6612 12.4945 20.4467 12.0491C20.2127 11.6088 20.0946 11.116 20.1035 10.6173Z" fill="#B5806D"/>
<path d="M18.657 17.1203C18.657 17.1203 20.5835 18.8891 22.2774 17.0894L18.657 17.1203Z" fill="#9D6D5C"/>
<path d="M19.0867 26.1134C19.0867 26.1134 22.4722 35.9163 9.52696 21.3541L3.90253 26.0312C2.73699 27.0172 1.93303 28.3642 1.61784 29.8591C1.34235 31.9799 1.06678 34.1007 0.791135 36.2215C-0.256394 44.2844 -0.263691 52.4488 0.769423 60.5135C1.04818 62.6885 1.32686 64.8635 1.60546 67.0386L25.7909 70.364C24.4304 65.6998 23.6269 60.8904 23.3974 56.0367C23.1252 50.227 23.8438 47.7551 23.5695 42.9363C23.1918 37.0885 21.6686 31.3722 19.0867 26.1134Z" fill="#FFBA55"/>
<path d="M22.6143 65.2323C22.1762 64.9808 21.73 64.7529 21.2903 64.5137L19.999 63.7527C19.1579 63.2228 18.3542 62.6356 17.5935 61.9953C16.8319 61.3618 16.1429 60.6455 15.5393 59.8595C15.2414 59.4633 14.9761 59.0435 14.746 58.6043C14.5009 58.1685 14.3146 57.7021 14.1919 57.2173C14.3308 58.23 14.7095 59.1948 15.2962 60.0312C15.8684 60.8772 16.5574 61.6376 17.3428 62.2899C18.1194 62.9443 18.959 63.52 19.8492 64.0085L21.2061 64.6826C21.6772 64.8661 22.1416 65.0609 22.6143 65.2323Z" fill="#E6952A"/>
<path d="M10.2812 32.2811C10.2812 32.2811 11.3768 29.6668 25.7124 50.2852L20.2654 57.3645C20.2654 57.3645 12.3568 50.8474 8.77444 45.2212" fill="#FFBA55"/>
<path d="M10.2812 32.2811C10.3499 32.1633 10.5041 32.1631 10.6244 32.1752C10.7494 32.1988 10.872 32.2341 10.9904 32.2807C11.2189 32.3902 11.438 32.5181 11.6457 32.6633C11.8575 32.8015 12.0596 32.9541 12.2506 33.12C12.4418 33.284 12.648 33.4342 12.8273 33.6108C13.5748 34.2886 14.2818 35.0087 14.9683 35.7459C16.339 37.2246 17.6012 38.7929 18.8672 40.357C20.1238 41.9285 21.3375 43.5332 22.5256 45.1552C23.7335 46.7638 24.8657 48.4247 26.0374 50.0586L26.2061 50.294L23.2961 54.0618L20.3183 57.8829L20.0365 57.6429C18.9623 56.7285 17.9249 55.7905 16.914 54.8164C15.9031 53.8443 14.9097 52.8543 13.9481 51.8333C12.9862 50.8129 12.054 49.7633 11.184 48.6623C10.3039 47.5712 9.49888 46.4216 8.77444 45.2212C9.58817 46.3556 10.4623 47.4452 11.393 48.4855C12.3258 49.5216 13.3013 50.5174 14.2841 51.5041C15.2745 52.4842 16.2959 53.4326 17.3333 54.362C18.3753 55.2843 19.4239 56.2079 20.4942 57.0858L19.9801 57.1442L22.6817 53.5878L25.3988 50.0432L25.3874 50.5117C24.2337 48.8713 23.0965 47.2181 21.925 45.5912C20.7702 43.9515 19.5798 42.339 18.3953 40.722C17.1933 39.1194 15.9813 37.5209 14.6858 35.9958C14.047 35.2255 13.3876 34.4723 12.6869 33.7596C12.5186 33.5734 12.3258 33.4161 12.1458 33.2427C11.9668 33.0693 11.7772 32.9072 11.578 32.7574C11.3857 32.5995 11.1808 32.4575 10.9654 32.333C10.8545 32.2795 10.7389 32.2363 10.6201 32.2039C10.5055 32.1839 10.3584 32.1703 10.2812 32.2811Z" fill="#E6952A"/>
<path d="M47.4673 105.181L48.7621 111.747L61.4534 113.794L44.4828 118.955L40.9106 107.174L47.4673 105.181Z" fill="#D19E8A"/>
<path d="M63.3325 113.855L63.3207 113.816C63.2303 113.518 63.0591 113.251 62.8262 113.045C62.5932 112.839 62.3075 112.701 62.0011 112.648L48.7747 110.347C48.6453 110.324 48.5121 110.348 48.3985 110.414C48.2848 110.48 48.1979 110.584 48.1529 110.707L46.8169 114.377C46.7695 114.508 46.6756 114.616 46.5533 114.681C46.431 114.746 46.2891 114.763 46.1548 114.729L43.0436 113.948C42.9475 113.924 42.8467 113.926 42.7516 113.954C42.6564 113.981 42.5703 114.034 42.502 114.106C42.4337 114.177 42.3857 114.266 42.3628 114.363C42.3399 114.459 42.343 114.56 42.3718 114.655L43.9193 119.759C43.9625 119.901 44.0603 120.02 44.1913 120.09C44.3222 120.16 44.4756 120.175 44.6177 120.132L62.9595 114.555C63.1016 114.511 63.2207 114.413 63.2906 114.282C63.3606 114.151 63.3756 113.998 63.3325 113.855Z" fill="#251D1B"/>
<path d="M1.14313 62.2615C1.14313 62.2615 -2.72152 79.4155 4.66436 79.1079H32.7424L40.3067 109.68C40.3067 109.68 43.2152 110.868 45.7398 110.339C47.4739 109.975 48.9684 108.318 50.0072 107.471C50.0072 107.471 44.481 63.6417 34.0272 62.3107C20.9874 60.6504 1.14313 62.2615 1.14313 62.2615Z" fill="#808B49"/>
<path d="M32.7424 79.1079C33.3896 78.2942 33.9681 77.4278 34.4714 76.5179C34.7066 76.0685 34.9477 75.6196 35.158 75.1459C35.3808 74.6759 35.5717 74.1889 35.828 73.6893C35.8993 74.2403 35.8725 74.7997 35.7487 75.3413C35.6346 75.8881 35.4392 76.4147 35.1691 76.9034C34.8999 77.395 34.5559 77.8416 34.1495 78.2272C33.7542 78.6249 33.2726 78.9263 32.7424 79.1079Z" fill="#5E7C24"/>
<path d="M53.0898 62.1846C57.7047 62.1846 57.7123 55.0024 53.0898 55.0024C48.4749 55.0024 48.4672 62.1846 53.0898 62.1846Z" fill="#6F56A5"/>
<path d="M25.5512 50.686L47.1224 53.566C47.1224 53.566 55.9324 50.2921 57.7268 54.935C57.9638 55.5763 57.9707 56.2802 57.7463 56.926C57.2083 58.5411 55.9361 61.7301 55.0044 59.0693L54.0464 56.3334C54.0464 56.3334 50.7398 58.6264 47.545 57.4893C46.3907 57.0785 30.9422 60.0917 22.6143 58.0573L20.2654 57.3645L25.5512 50.686Z" fill="#D19E8A"/>
</svg>
