<svg width="250" height="113" viewBox="0 0 250 113" fill="none" xmlns="http://www.w3.org/2000/svg">
<path d="M96.4282 0.0857468C91.6222 0.372258 86.8148 0.597832 82.0061 0.762467C77.1977 0.940384 72.3882 1.06231 67.5784 1.17348C62.7683 1.26665 57.9579 1.34776 53.1463 1.37326C48.335 1.41218 43.5224 1.3892 38.7085 1.30431C43.5145 1.01674 48.3219 0.790696 53.1306 0.626186C57.939 0.448499 62.7485 0.326579 67.5583 0.216577C72.3685 0.124578 77.1789 0.0434545 81.9905 0.0182019C86.8018 -0.020269 91.6144 0.00224192 96.4282 0.0857468Z" fill="#EBC136"/>
<path d="M57.7197 14.5645C52.9136 14.851 48.1063 15.0766 43.2976 15.2413C38.4892 15.4192 33.6797 15.5412 28.8699 15.6522C24.0598 15.7454 19.2494 15.8266 14.4378 15.852C9.6265 15.891 4.8139 15.8681 0 15.7831C4.80604 15.4955 9.61341 15.2694 14.4221 15.1049C19.2305 14.9272 24.04 14.8053 28.8498 14.6954C33.66 14.6034 38.4704 14.5222 43.282 14.497C48.0933 14.4585 52.9059 14.4809 57.7197 14.5645Z" fill="#EBC136"/>
<path d="M74.2642 30.7681C69.4581 31.0546 64.6507 31.2802 59.8421 31.445C55.0337 31.6229 50.2241 31.7448 45.4144 31.8558C40.6042 31.949 35.7938 32.0303 30.9822 32.0556C26.1709 32.0947 21.3583 32.0717 16.5444 31.9868C21.3505 31.6991 26.1579 31.473 30.9665 31.3085C35.7749 31.1308 40.5844 31.0089 45.3942 30.899C50.2044 30.807 55.0149 30.7258 59.8264 30.7006C64.6377 30.6621 69.4503 30.6846 74.2642 30.7681Z" fill="#EBC136"/>
<path d="M249.1 112.135H27.9956C27.8768 112.135 27.763 112.083 27.679 111.989C27.595 111.895 27.5479 111.768 27.5479 111.635C27.5479 111.503 27.595 111.376 27.679 111.282C27.763 111.188 27.8768 111.135 27.9956 111.135H249.1C249.219 111.135 249.333 111.188 249.417 111.282C249.501 111.376 249.548 111.503 249.548 111.635C249.548 111.768 249.501 111.895 249.417 111.989C249.333 112.083 249.219 112.135 249.1 112.135Z" fill="#8C8686"/>
</svg>
